<svg id="visual" viewBox="0 0 900 600" width="900" height="600" xmlns="http://www.w3.org/2000/svg" xmlns:xlink="http://www.w3.org/1999/xlink" version="1.1"><path d="M0 49L69 31L138 73L208 61L277 55L346 73L415 25L485 31L554 37L623 31L692 49L762 55L831 55L900 19L900 0L831 0L762 0L692 0L623 0L554 0L485 0L415 0L346 0L277 0L208 0L138 0L69 0L0 0Z" fill="#038373"></path><path d="M0 103L69 85L138 169L208 139L277 163L346 103L415 91L485 61L554 73L623 127L692 115L762 97L831 91L900 97L900 17L831 53L762 53L692 47L623 29L554 35L485 29L415 23L346 71L277 53L208 59L138 71L69 29L0 47Z" fill="#009d80"></path><path d="M0 163L69 157L138 253L208 199L277 193L346 127L415 121L485 139L554 157L623 217L692 139L762 175L831 145L900 121L900 95L831 89L762 95L692 113L623 125L554 71L485 59L415 89L346 101L277 161L208 137L138 167L69 83L0 101Z" fill="#00b789"></path><path d="M0 343L69 343L138 355L208 379L277 355L346 205L415 265L485 295L554 277L623 277L692 235L762 301L831 331L900 253L900 119L831 143L762 173L692 137L623 215L554 155L485 137L415 119L346 125L277 191L208 197L138 251L69 155L0 161Z" fill="#00cc8e"></path><path d="M0 361L69 397L138 367L208 391L277 367L346 217L415 289L485 349L554 301L623 289L692 253L762 319L831 385L900 277L900 251L831 329L762 299L692 233L623 275L554 275L485 293L415 263L346 203L277 353L208 377L138 353L69 341L0 341Z" fill="#00cc8e"></path><path d="M0 427L69 439L138 433L208 481L277 421L346 307L415 439L485 493L554 337L623 391L692 373L762 439L831 481L900 403L900 275L831 383L762 317L692 251L623 287L554 299L485 347L415 287L346 215L277 365L208 389L138 365L69 395L0 359Z" fill="#00b789"></path><path d="M0 493L69 499L138 457L208 517L277 493L346 355L415 475L485 511L554 415L623 457L692 397L762 475L831 541L900 469L900 401L831 479L762 437L692 371L623 389L554 335L485 491L415 437L346 305L277 419L208 479L138 431L69 437L0 425Z" fill="#009d80"></path><path d="M0 601L69 601L138 601L208 601L277 601L346 601L415 601L485 601L554 601L623 601L692 601L762 601L831 601L900 601L900 467L831 539L762 473L692 395L623 455L554 413L485 509L415 473L346 353L277 491L208 515L138 455L69 497L0 491Z" fill="#038373"></path></svg>